<?xml version="1.0" encoding="UTF-8" standalone="no"?>
<svg
   xmlns:dc="http://purl.org/dc/elements/1.1/"
   xmlns:cc="http://creativecommons.org/ns#"
   xmlns:rdf="http://www.w3.org/1999/02/22-rdf-syntax-ns#"
   xmlns:svg="http://www.w3.org/2000/svg"
   xmlns="http://www.w3.org/2000/svg"
   xmlns:sodipodi="http://sodipodi.sourceforge.net/DTD/sodipodi-0.dtd"
   xmlns:inkscape="http://www.inkscape.org/namespaces/inkscape"
   height="26.058901"
   viewBox="0 0 46.35407 15.63534"
   width="77.256783"
   id="svg8"
   version="1.1"
   sodipodi:docname="logo-text.svg"
   inkscape:version="1.0.2 (e86c870879, 2021-01-15, custom)">
  <defs
     id="defs2" />
  <sodipodi:namedview
     id="base"
     pagecolor="#ffffff"
     bordercolor="#666666"
     borderopacity="1.0"
     inkscape:pageopacity="0.0"
     inkscape:pageshadow="2"
     inkscape:zoom="11.2"
     inkscape:cx="47.35654"
     inkscape:cy="23.038377"
     inkscape:document-units="mm"
     inkscape:current-layer="g65"
     inkscape:document-rotation="0"
     showgrid="false"
     inkscape:window-width="1732"
     inkscape:window-height="1092"
     inkscape:window-x="2748"
     inkscape:window-y="78"
     inkscape:window-maximized="0"
     inkscape:pagecheckerboard="true"
     inkscape:snap-center="true"
     fit-margin-top="0"
     fit-margin-left="0"
     fit-margin-right="0"
     fit-margin-bottom="0"
     units="px"
     scale-x="1"
     viewbox-y="0"
     viewbox-height="10.17815"
     viewbox-width="30.17516"
     showborder="true" />
  <metadata
     id="metadata5">
    <rdf:RDF>
      <cc:Work
         rdf:about="">
        <dc:format>image/svg+xml</dc:format>
        <dc:type
           rdf:resource="http://purl.org/dc/dcmitype/StillImage" />
        <dc:title></dc:title>
      </cc:Work>
    </rdf:RDF>
  </metadata>
  <g
     inkscape:label="Layer 1"
     inkscape:groupmode="layer"
     id="layer1"
     transform="translate(8.0894654,1.8176705)">
    <g
       id="g1533"
       transform="translate(0,-0.02267634)">
      <g
         id="g1556">
        <g
           id="g1564">
          <circle
             style="fill:none;fill-opacity:1;stroke:#222835;stroke-width:2.80262;stroke-linejoin:bevel;stroke-miterlimit:4;stroke-dasharray:none;stroke-opacity:1;paint-order:fill markers stroke"
             id="path1558-3"
             cy="9.7591515"
             cx="12.037825"
             r="0" />
          <circle
             style="fill:#33c6c3;fill-opacity:1;stroke:#1a202c;stroke-width:1.07;stroke-linecap:butt;stroke-linejoin:bevel;stroke-miterlimit:4;stroke-dasharray:none;stroke-opacity:1;paint-order:fill markers stroke"
             id="path894"
             cx="12"
             cy="9.6159058"
             r="0" />
          <g
             id="g875"
             transform="translate(1.6229616)">
            <g
               id="g887"
               transform="matrix(0.95902023,0,0,0.95902023,0.57206625,-5.5858053)">
              <g
                 id="g65"
                 transform="translate(-0.73221559)">
                <g
                   id="g896"
                   transform="translate(-6.5474084)">
                  <g
                     id="g1926"
                     transform="matrix(0.83493156,0,0,0.83493156,-7.6286797,2.1938903)">
                    <path
                       style="opacity:0.993;fill:#222835;fill-opacity:1;stroke:none;stroke-width:0.840329;stroke-miterlimit:4;stroke-dasharray:none;stroke-opacity:1"
                       d="m 5.4804785,14.410944 a 7.1183372,7.1183372 0 0 0 5.2827995,4.444952 l 2.565838,-4.444952 z"
                       id="path1883" />
                    <path
                       style="opacity:0.993;fill:#33c6c3;fill-opacity:1;stroke:none;stroke-width:0.839686;stroke-miterlimit:4;stroke-dasharray:none;stroke-opacity:1"
                       d="m 15.191999,12.207584 -3.886627,6.73271 a 7.1183372,7.1183372 0 0 0 0.824501,0.04797 7.1183372,7.1183372 0 0 0 5.486219,-2.58279 z"
                       id="path1881" />
                    <path
                       style="opacity:0.993;fill:#222835;fill-opacity:1;stroke:none;stroke-width:0.840329;stroke-miterlimit:4;stroke-dasharray:none;stroke-opacity:1"
                       d="M 14.215653,9.4927872 17.952241,15.96509 A 7.1183372,7.1183372 0 0 0 19.248144,11.869992 7.1183372,7.1183372 0 0 0 18.839139,9.4927872 Z"
                       id="path1879" />
                    <path
                       style="opacity:0.993;fill:#33c6c3;fill-opacity:1;stroke:none;stroke-width:0.840329;stroke-miterlimit:4;stroke-dasharray:none;stroke-opacity:1"
                       d="m 6.6768355,7.2944764 a 7.1183372,7.1183372 0 0 0 -1.665233,4.5755156 7.1183372,7.1183372 0 0 0 0.295753,2.029876 h 5.1825315 z"
                       id="path1877" />
                    <path
                       style="opacity:0.993;fill:#33c6c3;fill-opacity:1;stroke:none;stroke-width:0.840329;stroke-miterlimit:4;stroke-dasharray:none;stroke-opacity:1"
                       d="m 13.714316,4.9306159 -2.338973,4.0510954 h 7.260376 A 7.1183372,7.1183372 0 0 0 13.714316,4.9306159 Z"
                       id="path1875" />
                    <path
                       style="opacity:0.993;fill:#222835;fill-opacity:1;stroke:none;stroke-width:0.840329;stroke-miterlimit:4;stroke-dasharray:none;stroke-opacity:1"
                       d="M 12.129873,4.7517214 A 7.1183372,7.1183372 0 0 0 7.0378715,6.8962918 L 9.5131795,11.18435 13.181961,4.8299879 a 7.1183372,7.1183372 0 0 0 -1.052088,-0.078266 z"
                       id="path1841" />
                    <circle
                       style="opacity:0.993;fill:#33c6c3;fill-opacity:1;stroke:none;stroke-width:0;stroke-miterlimit:4;stroke-dasharray:none;stroke-opacity:1"
                       id="circle1843"
                       cx="12.129838"
                       cy="11.870106"
                       r="1.5759634" />
                  </g>
                  <g
                     aria-label="PYRITE"
                     id="text22"
                     style="font-style:normal;font-weight:normal;font-size:7.72127px;line-height:1.25;font-family:sans-serif;fill:#33c6c3;fill-opacity:1;stroke:none;stroke-width:0.289547"
                     transform="matrix(0.86665643,0,0,0.86665643,0.80015624,1.5588826)">
                    <path
                       d="m 10.487636,8.9774082 h 1.984367 q 1.621466,0 1.621466,1.7990558 0,0.949716 -0.463276,1.351222 -0.463276,0.393785 -1.289452,0.393785 h -0.586816 v 2.710166 h -1.266289 z m 1.721843,2.6483958 q 0.409228,0 0.548211,-0.193032 0.138982,-0.193032 0.138982,-0.679472 0,-0.316572 -0.04633,-0.494161 -0.04633,-0.18531 -0.200753,-0.2856869 -0.146704,-0.1003765 -0.447834,-0.1003765 h -0.447833 v 1.7527284 z"
                       style="font-style:normal;font-variant:normal;font-weight:600;font-stretch:normal;font-size:7.72127px;font-family:Oswald;-inkscape-font-specification:'Oswald Semi-Bold';fill:#33c6c3;fill-opacity:1;stroke-width:0.289547"
                       id="path37" />
                    <path
                       d="M 15.560501,12.753109 14.34054,8.9774082 h 1.196797 l 0.67175,2.2005618 0.617702,-2.2005618 h 1.165912 l -1.204518,3.7757008 v 2.478528 h -1.227682 z"
                       style="font-style:normal;font-variant:normal;font-weight:600;font-stretch:normal;font-size:7.72127px;font-family:Oswald;-inkscape-font-specification:'Oswald Semi-Bold';fill:#33c6c3;fill-opacity:1;stroke-width:0.289547"
                       id="path39" />
                    <path
                       d="m 18.533184,8.9774082 h 1.621466 q 1.011487,0 1.521091,0.370621 0.509603,0.370621 0.509603,1.2817308 0,0.60998 -0.169867,0.988323 -0.169868,0.370621 -0.60226,0.563652 L 22.278,15.231637 h -1.304895 l -0.710357,-2.833706 h -0.463276 v 2.833706 h -1.266288 z m 1.64463,2.6638378 q 0.447834,0 0.625423,-0.216195 0.185311,-0.223917 0.185311,-0.694914 0,-0.463277 -0.162147,-0.679472 -0.162147,-0.2161958 -0.586817,-0.2161958 h -0.440112 v 1.8067768 z"
                       style="font-style:normal;font-variant:normal;font-weight:600;font-stretch:normal;font-size:7.72127px;font-family:Oswald;-inkscape-font-specification:'Oswald Semi-Bold';fill:#33c6c3;fill-opacity:1;stroke-width:0.289547"
                       id="path41" />
                    <path
                       d="m 23.050114,8.9774082 h 1.266288 v 6.2542288 h -1.266288 z"
                       style="font-style:normal;font-variant:normal;font-weight:600;font-stretch:normal;font-size:7.72127px;font-family:Oswald;-inkscape-font-specification:'Oswald Semi-Bold';fill:#33c6c3;fill-opacity:1;stroke-width:0.289547"
                       id="path43" />
                    <path
                       d="m 25.852931,9.9194032 h -0.965158 v -0.941995 h 3.196605 v 0.941995 h -0.949716 v 5.3122338 h -1.281731 z"
                       style="font-style:normal;font-variant:normal;font-weight:600;font-stretch:normal;font-size:7.72127px;font-family:Oswald;-inkscape-font-specification:'Oswald Semi-Bold';fill:#33c6c3;fill-opacity:1;stroke-width:0.289547"
                       id="path45" />
                    <path
                       d="m 28.648029,8.9774082 h 2.725608 V 9.857633 h -1.45932 v 1.660073 h 1.127306 v 0.887946 h -1.127306 v 1.961203 h 1.474763 v 0.864782 h -2.741051 z"
                       style="font-style:normal;font-variant:normal;font-weight:600;font-stretch:normal;font-size:7.72127px;font-family:Oswald;-inkscape-font-specification:'Oswald Semi-Bold';fill:#33c6c3;fill-opacity:1;stroke-width:0.289547"
                       id="path47" />
                  </g>
                  <text
                     xml:space="preserve"
                     style="font-style:normal;font-weight:normal;font-size:1.64796px;line-height:1.25;font-family:sans-serif;fill:#666666;fill-opacity:1;stroke:none;stroke-width:0.308993"
                     x="9.7756186"
                     y="16.80131"
                     id="text69"><tspan
                       sodipodi:role="line"
                       id="tspan67"
                       x="9.7756186"
                       y="16.80131"
                       style="font-style:normal;font-variant:normal;font-weight:600;font-stretch:normal;font-size:1.64796px;font-family:Oswald;-inkscape-font-specification:'Oswald Semi-Bold';fill:#666666;fill-opacity:1;stroke-width:0.308993">BETTER REMOTE COMMUNICATION</tspan></text>
                </g>
              </g>
            </g>
          </g>
        </g>
      </g>
    </g>
  </g>
</svg>
