<?xml version="1.0" encoding="UTF-8" standalone="no"?>
<svg
   xmlns:dc="http://purl.org/dc/elements/1.1/"
   xmlns:cc="http://creativecommons.org/ns#"
   xmlns:rdf="http://www.w3.org/1999/02/22-rdf-syntax-ns#"
   xmlns:svg="http://www.w3.org/2000/svg"
   xmlns="http://www.w3.org/2000/svg"
   xmlns:sodipodi="http://sodipodi.sourceforge.net/DTD/sodipodi-0.dtd"
   xmlns:inkscape="http://www.inkscape.org/namespaces/inkscape"
   width="24mm"
   height="24mm"
   viewBox="0 0 24 24"
   version="1.1"
   id="svg8"
   sodipodi:docname="logo.svg"
   inkscape:version="1.0.1 (3bc2e813f5, 2020-09-07, custom)">
  <defs
     id="defs2" />
  <sodipodi:namedview
     id="base"
     pagecolor="#ffffff"
     bordercolor="#666666"
     borderopacity="1.0"
     inkscape:pageopacity="0.0"
     inkscape:pageshadow="2"
     inkscape:zoom="7.9195961"
     inkscape:cx="47.348506"
     inkscape:cy="66.204039"
     inkscape:document-units="mm"
     inkscape:current-layer="g1564"
     inkscape:document-rotation="0"
     showgrid="false"
     inkscape:window-width="1343"
     inkscape:window-height="856"
     inkscape:window-x="3105"
     inkscape:window-y="171"
     inkscape:window-maximized="0"
     inkscape:pagecheckerboard="true" />
  <metadata
     id="metadata5">
    <rdf:RDF>
      <cc:Work
         rdf:about="">
        <dc:format>image/svg+xml</dc:format>
        <dc:type
           rdf:resource="http://purl.org/dc/dcmitype/StillImage" />
        <dc:title></dc:title>
      </cc:Work>
    </rdf:RDF>
  </metadata>
  <g
     inkscape:label="Layer 1"
     inkscape:groupmode="layer"
     id="layer1">
    <g
       id="g1533"
       transform="translate(0,-0.02267634)">
      <g
         id="g1556">
        <g
           id="g1564">
          <circle
             style="fill:none;fill-opacity:1;stroke:#222835;stroke-width:2.80262;stroke-linejoin:bevel;stroke-miterlimit:4;stroke-dasharray:none;stroke-opacity:1;paint-order:fill markers stroke"
             id="path1558-3"
             cy="9.7591515"
             cx="12.037825"
             rx="7.2093797"
             ry="7.3301554" />
          <path
             id="path878"
             style="fill:#33c6c3;fill-opacity:1;stroke:none;stroke-width:2.59149;stroke-linecap:butt;stroke-linejoin:bevel;stroke-miterlimit:4;stroke-dasharray:none;stroke-opacity:1;paint-order:fill markers stroke"
             d="M 45.337891 3.6582031 C 32.90265 3.6638724 21.566923 10.782156 16.160156 21.980469 C 10.361218 33.99093 12.511204 48.328425 21.576172 58.111328 C 21.693443 58.237791 21.841466 58.34001 21.929688 58.488281 C 27.968124 68.639892 21.929688 87.050781 21.929688 87.050781 L 45.355469 68.494141 C 45.355469 68.494141 53.417312 67.736042 57.1875 66.257812 C 69.60417 61.389407 77.773366 49.413165 77.773438 36.076172 L 67.380859 36.076172 A 22.029875 22.029875 0 0 1 67.384766 36.470703 A 22.029875 22.029875 0 0 1 45.353516 58.5 A 22.029875 22.029875 0 0 1 23.324219 36.470703 A 22.029875 22.029875 0 0 1 45.353516 14.441406 A 22.029875 22.029875 0 0 1 47 14.503906 L 47.820312 3.7519531 C 46.994369 3.6889295 46.166242 3.657779 45.337891 3.6582031 z "
             transform="matrix(0.26458333,0,0,0.26458333,0,0.02267634)" />
          <ellipse
             style="fill:#33c6c3;fill-opacity:1;stroke:#1a202c;stroke-width:1.07;stroke-linecap:butt;stroke-linejoin:bevel;stroke-miterlimit:4;stroke-dasharray:none;stroke-opacity:1;paint-order:fill markers stroke"
             id="path894"
             cx="12"
             cy="9.6159058"
             r="2.0255728" />
          <circle
             style="font-variation-settings:normal;opacity:1;vector-effect:none;fill:none;fill-opacity:1;stroke:#ffffff;stroke-width:2.223;stroke-linecap:butt;stroke-linejoin:bevel;stroke-miterlimit:4;stroke-dasharray:none;stroke-dashoffset:0;stroke-opacity:1;paint-order:fill markers stroke;stop-color:#000000;stop-opacity:1"
             id="path1558"
             cx="12.125657"
             cy="9.6589193"
             r="2.5357502" />
        </g>
      </g>
    </g>
  </g>
</svg>
